<svg width="36" height="36" viewBox="0 0 36 36" fill="none" xmlns="http://www.w3.org/2000/svg">
<path d="M32.6081 24.6208C32.3574 26.5263 31.4216 28.2754 29.9755 29.5414C28.5294 30.8074 26.6719 31.5036 24.75 31.5002C13.5844 31.5002 4.50001 22.4158 4.50001 11.2502C4.49657 9.32827 5.19285 7.4708 6.45883 6.02471C7.7248 4.57863 9.47388 3.64282 11.3794 3.39208C11.8612 3.33324 12.3492 3.43182 12.7704 3.6731C13.1917 3.91438 13.5236 4.28542 13.7166 4.73083L16.6866 11.3613V11.3782C16.8344 11.7191 16.8954 12.0914 16.8642 12.4617C16.8331 12.8319 16.7107 13.1887 16.508 13.5002C16.4827 13.5382 16.456 13.5733 16.4278 13.6085L13.5 17.0791C14.5533 19.2194 16.792 21.4385 18.9605 22.4946L22.3833 19.5822C22.4169 19.554 22.4521 19.5277 22.4888 19.5035C22.8 19.2959 23.158 19.1692 23.5305 19.1349C23.9029 19.1005 24.2781 19.1595 24.622 19.3066L24.6403 19.315L31.2652 22.2836C31.7114 22.476 32.0833 22.8076 32.3254 23.2289C32.5675 23.6502 32.6667 24.1385 32.6081 24.6208Z" fill="white"/>
</svg>
