<svg width="37" height="37" viewBox="0 0 37 37" fill="none" xmlns="http://www.w3.org/2000/svg">
<path fill-rule="evenodd" clip-rule="evenodd" d="M4.89015 7.97334C3.08331 9.77863 3.08331 12.6862 3.08331 18.4998C3.08331 24.3135 3.08331 27.221 4.89015 29.0263C6.69544 30.8332 9.60302 30.8332 15.4166 30.8332H21.5833C27.3969 30.8332 30.3045 30.8332 32.1098 29.0263C33.9166 27.221 33.9166 24.3135 33.9166 18.4998C33.9166 12.6862 33.9166 9.77863 32.1098 7.97334C30.3045 6.1665 27.3969 6.1665 21.5833 6.1665H15.4166C9.60302 6.1665 6.69544 6.1665 4.89015 7.97334ZM28.638 11.5932C28.8342 11.8287 28.9288 12.1325 28.901 12.4378C28.8733 12.7431 28.7254 13.0249 28.49 13.2212L25.1045 16.0424C23.737 17.1833 22.6301 18.1052 21.6511 18.7342C20.6336 19.3894 19.6424 19.8025 18.5 19.8025C17.3576 19.8025 16.3663 19.3878 15.3473 18.7342C14.3699 18.1052 13.2629 17.1817 11.8955 16.044L8.50998 13.2227C8.27426 13.0265 8.12616 12.7446 8.09826 12.4391C8.07036 12.1337 8.16495 11.8297 8.36121 11.5939C8.55747 11.3582 8.83933 11.2101 9.14478 11.1822C9.45024 11.1543 9.75426 11.2489 9.98998 11.4452L13.32 14.2186C14.7584 15.4165 15.7558 16.2459 16.6006 16.7886C17.4162 17.3128 17.9696 17.49 18.5015 17.49C19.0334 17.49 19.5869 17.3143 20.4024 16.7886C21.2457 16.2459 22.2447 15.4165 23.6831 14.2186L27.0115 11.4436C27.2473 11.2476 27.5512 11.1533 27.8565 11.1813C28.1618 11.2094 28.4419 11.3575 28.638 11.5932Z" fill="white"/>
</svg>
