<svg width="186" height="73" viewBox="0 0 186 73" fill="none" xmlns="http://www.w3.org/2000/svg">
<path d="M0.454546 1.18182H10.1364L29.5 33.7727H30.3182L49.6818 1.18182H59.3636L34.1364 42.2273V71H25.6818V42.2273L0.454546 1.18182ZM108.48 18.6364C108.071 15.1818 106.412 12.5 103.503 10.5909C100.594 8.68182 97.0256 7.72727 92.7983 7.72727C89.7074 7.72727 87.0028 8.22727 84.6847 9.22727C82.3892 10.2273 80.5938 11.6023 79.2983 13.3523C78.0256 15.1023 77.3892 17.0909 77.3892 19.3182C77.3892 21.1818 77.8324 22.7841 78.7188 24.125C79.6278 25.4432 80.7869 26.5455 82.196 27.4318C83.6051 28.2955 85.0824 29.0114 86.6278 29.5795C88.1733 30.125 89.5938 30.5682 90.8892 30.9091L97.9801 32.8182C99.7983 33.2955 101.821 33.9545 104.048 34.7955C106.298 35.6364 108.446 36.7841 110.491 38.2386C112.56 39.6705 114.264 41.5114 115.605 43.7614C116.946 46.0114 117.616 48.7727 117.616 52.0455C117.616 55.8182 116.628 59.2273 114.651 62.2727C112.696 65.3182 109.832 67.7386 106.06 69.5341C102.31 71.3295 97.7528 72.2273 92.3892 72.2273C87.3892 72.2273 83.0597 71.4205 79.4006 69.8068C75.7642 68.1932 72.9006 65.9432 70.8097 63.0568C68.7415 60.1705 67.571 56.8182 67.2983 53H76.0256C76.2528 55.6364 77.1392 57.8182 78.6847 59.5455C80.2528 61.25 82.2301 62.5227 84.6165 63.3636C87.0256 64.1818 89.6165 64.5909 92.3892 64.5909C95.6165 64.5909 98.5142 64.0682 101.082 63.0227C103.651 61.9545 105.685 60.4773 107.185 58.5909C108.685 56.6818 109.435 54.4545 109.435 51.9091C109.435 49.5909 108.787 47.7045 107.491 46.25C106.196 44.7955 104.491 43.6136 102.378 42.7045C100.264 41.7955 97.9801 41 95.5256 40.3182L86.9347 37.8636C81.4801 36.2955 77.1619 34.0568 73.9801 31.1477C70.7983 28.2386 69.2074 24.4318 69.2074 19.7273C69.2074 15.8182 70.2642 12.4091 72.3778 9.5C74.5142 6.56818 77.3778 4.29545 80.9688 2.68182C84.5824 1.04545 88.6165 0.22727 93.071 0.22727C97.571 0.22727 101.571 1.03409 105.071 2.64772C108.571 4.23863 111.344 6.42045 113.389 9.19318C115.457 11.9659 116.548 15.1136 116.662 18.6364H108.48ZM134.381 71H125.517L151.153 1.18182H159.881L185.517 71H176.653L155.79 12.2273H155.244L134.381 71ZM137.653 43.7273H173.381V51.2273H137.653V43.7273Z" fill="black"/>
</svg>
